<?xml version="1.0" encoding="UTF-8"?>
<svg xmlns="http://www.w3.org/2000/svg" xmlns:xlink="http://www.w3.org/1999/xlink" width="400" height="400" viewBox="0 0 400 400">
<path fill-rule="nonzero" fill="rgb(58.4%, 34.5%, 69.8%)" fill-opacity="0.25" d="M 46.398438 166.84375 L 47.945312 168.921875 L 49.488281 171.027344 L 51.03125 173.15625 L 52.574219 175.308594 L 54.117188 177.476562 L 55.664062 179.660156 L 57.207031 181.851562 L 61.835938 188.4375 L 63.382812 190.621094 L 64.925781 192.789062 L 66.46875 194.9375 L 68.011719 197.058594 L 69.554688 199.148438 L 71.097656 201.199219 L 72.644531 203.203125 L 74.1875 205.15625 L 75.730469 207.046875 L 77.273438 208.867188 L 78.816406 210.613281 L 80.363281 212.273438 L 81.90625 213.84375 L 83.449219 215.316406 L 84.992188 216.683594 L 86.535156 217.9375 L 88.082031 219.078125 L 89.625 220.097656 L 91.167969 221 L 92.710938 221.78125 L 94.253906 222.445312 L 95.800781 222.996094 L 97.34375 223.441406 L 98.886719 223.78125 L 100.429688 224.023438 L 101.972656 224.179688 L 103.519531 224.257812 L 105.0625 224.257812 L 106.605469 224.1875 L 108.148438 224.058594 L 109.691406 223.867188 L 111.234375 223.628906 L 112.78125 223.335938 L 114.324219 223 L 115.867188 222.617188 L 117.410156 222.191406 L 118.953125 221.726562 L 120.5 221.226562 L 122.042969 220.683594 L 123.585938 220.101562 L 125.128906 219.484375 L 126.671875 218.828125 L 128.21875 218.136719 L 129.761719 217.410156 L 131.304688 216.644531 L 132.847656 215.839844 L 134.390625 215 L 135.9375 214.125 L 137.480469 213.214844 L 139.023438 212.269531 L 140.566406 211.289062 L 142.109375 210.273438 L 143.652344 209.222656 L 145.199219 208.140625 L 146.742188 207.03125 L 148.285156 205.890625 L 149.828125 204.71875 L 151.371094 203.523438 L 152.917969 202.300781 L 154.460938 201.054688 L 156.003906 199.789062 L 157.546875 198.5 L 159.089844 197.195312 L 160.636719 195.871094 L 162.179688 194.535156 L 163.722656 193.1875 L 165.265625 191.828125 L 166.808594 190.457031 L 168.355469 189.078125 L 169.898438 187.691406 L 171.441406 186.296875 L 172.984375 184.894531 L 174.527344 183.484375 L 176.074219 182.066406 L 177.617188 180.640625 L 179.160156 179.203125 L 180.703125 177.75 L 182.246094 176.28125 L 183.789062 174.789062 L 185.335938 173.269531 L 186.878906 171.722656 L 188.421875 170.132812 L 189.964844 168.503906 L 191.507812 166.828125 L 193.054688 165.097656 L 194.597656 163.308594 L 196.140625 161.460938 L 197.683594 159.550781 L 199.226562 157.582031 L 200.773438 155.550781 L 202.316406 153.472656 L 203.859375 151.34375 L 205.402344 149.175781 L 206.945312 146.980469 L 208.492188 144.761719 L 211.578125 140.300781 L 213.121094 138.078125 L 214.664062 135.875 L 216.210938 133.703125 L 217.753906 131.566406 L 219.296875 129.476562 L 220.839844 127.441406 L 222.382812 125.472656 L 223.925781 123.578125 L 225.472656 121.757812 L 227.015625 120.027344 L 228.558594 118.386719 L 230.101562 116.847656 L 231.644531 115.410156 L 233.191406 114.089844 L 234.734375 112.882812 L 236.277344 111.796875 L 237.820312 110.835938 L 239.363281 110.007812 L 240.910156 109.316406 L 242.453125 108.761719 L 243.996094 108.351562 L 245.539062 108.085938 L 247.082031 107.96875 L 248.628906 108.003906 L 250.171875 108.191406 L 251.714844 108.53125 L 253.257812 109.03125 L 254.800781 109.6875 L 256.347656 110.5 L 257.890625 111.472656 L 259.433594 112.601562 L 260.976562 113.890625 L 262.519531 115.335938 L 264.0625 116.9375 L 265.609375 118.6875 L 267.152344 120.59375 L 268.695312 122.648438 L 270.238281 124.847656 L 271.78125 127.191406 L 273.328125 129.671875 L 274.871094 132.289062 L 276.414062 135.03125 L 277.957031 137.902344 L 279.5 140.890625 L 281.046875 143.992188 L 282.589844 147.199219 L 284.132812 150.507812 L 285.675781 153.902344 L 287.21875 157.378906 L 288.765625 160.925781 L 290.308594 164.535156 L 291.851562 168.1875 L 293.394531 171.871094 L 296.480469 179.261719 L 298.027344 182.925781 L 299.570312 186.539062 L 301.113281 190.074219 L 302.65625 193.5 L 304.199219 196.789062 L 305.746094 199.90625 L 307.289062 202.832031 L 308.832031 205.539062 L 310.375 208.019531 L 311.917969 210.269531 L 313.464844 212.292969 L 315.007812 214.105469 L 316.550781 215.722656 L 318.09375 217.164062 L 319.636719 218.453125 L 321.183594 219.605469 L 322.726562 220.636719 L 324.269531 221.5625 L 325.8125 222.398438 L 327.355469 223.152344 L 328.902344 223.832031 L 330.445312 224.449219 L 331.988281 225.007812 L 333.53125 225.511719 L 335.074219 225.96875 L 336.617188 226.378906 L 338.164062 226.75 L 339.707031 227.078125 L 341.25 227.367188 L 342.792969 227.625 L 344.335938 227.847656 L 345.882812 228.035156 L 347.425781 228.195312 L 348.96875 228.320312 L 350.511719 228.421875 L 352.054688 228.492188 L 353.601562 228.535156 L 353.601562 379.253906 L 352.054688 374.621094 L 350.511719 369.941406 L 348.96875 365.21875 L 347.425781 360.457031 L 345.882812 355.65625 L 344.335938 350.824219 L 342.792969 345.964844 L 341.25 341.078125 L 339.707031 336.171875 L 338.164062 331.253906 L 336.617188 326.324219 L 335.074219 321.394531 L 333.53125 316.46875 L 331.988281 311.550781 L 330.445312 306.65625 L 328.902344 301.789062 L 327.355469 296.960938 L 325.8125 292.179688 L 324.269531 287.464844 L 322.726562 282.832031 L 321.183594 278.292969 L 319.636719 273.867188 L 318.09375 269.582031 L 316.550781 265.457031 L 315.007812 261.515625 L 313.464844 257.785156 L 311.917969 254.285156 L 310.375 251.039062 L 308.832031 248.050781 L 307.289062 245.324219 L 305.746094 242.855469 L 304.199219 240.625 L 302.65625 238.617188 L 301.113281 236.800781 L 299.570312 235.152344 L 298.027344 233.652344 L 296.480469 232.273438 L 294.9375 230.996094 L 293.394531 229.800781 L 291.851562 228.683594 L 290.308594 227.621094 L 288.765625 226.605469 L 287.21875 225.632812 L 285.675781 224.691406 L 284.132812 223.777344 L 282.589844 222.882812 L 281.046875 222.007812 L 279.5 221.148438 L 277.957031 220.296875 L 276.414062 219.453125 L 274.871094 218.617188 L 273.328125 217.785156 L 271.78125 216.953125 L 268.695312 215.289062 L 265.609375 213.617188 L 264.0625 212.777344 L 262.519531 211.9375 L 260.976562 211.089844 L 257.890625 209.386719 L 256.347656 208.53125 L 254.800781 207.671875 L 251.714844 205.953125 L 248.628906 204.242188 L 247.082031 203.390625 L 245.539062 202.550781 L 243.996094 201.714844 L 242.453125 200.894531 L 240.910156 200.089844 L 239.363281 199.300781 L 237.820312 198.53125 L 236.277344 197.789062 L 234.734375 197.074219 L 233.191406 196.386719 L 231.644531 195.738281 L 230.101562 195.128906 L 228.558594 194.5625 L 227.015625 194.042969 L 225.472656 193.578125 L 223.925781 193.167969 L 222.382812 192.820312 L 220.839844 192.542969 L 219.296875 192.332031 L 217.753906 192.203125 L 216.210938 192.15625 L 214.664062 192.199219 L 213.121094 192.335938 L 211.578125 192.578125 L 210.035156 192.921875 L 208.492188 193.382812 L 206.945312 193.960938 L 205.402344 194.667969 L 203.859375 195.5 L 202.316406 196.46875 L 200.773438 197.574219 L 199.226562 198.816406 L 197.683594 200.191406 L 196.140625 201.703125 L 194.597656 203.34375 L 193.054688 205.105469 L 191.507812 206.976562 L 189.964844 208.953125 L 188.421875 211.019531 L 186.878906 213.164062 L 185.335938 215.375 L 183.789062 217.640625 L 182.246094 219.945312 L 180.703125 222.285156 L 179.160156 224.640625 L 176.074219 229.375 L 174.527344 231.730469 L 172.984375 234.070312 L 171.441406 236.386719 L 169.898438 238.671875 L 168.355469 240.921875 L 166.808594 243.125 L 165.265625 245.28125 L 163.722656 247.386719 L 162.179688 249.433594 L 160.636719 251.417969 L 159.089844 253.335938 L 157.546875 255.1875 L 156.003906 256.96875 L 154.460938 258.675781 L 152.917969 260.304688 L 151.371094 261.855469 L 149.828125 263.324219 L 148.285156 264.714844 L 146.742188 266.019531 L 145.199219 267.238281 L 143.652344 268.371094 L 142.109375 269.414062 L 140.566406 270.371094 L 139.023438 271.242188 L 137.480469 272.023438 L 135.9375 272.71875 L 134.390625 273.320312 L 132.847656 273.839844 L 131.304688 274.269531 L 129.761719 274.613281 L 128.21875 274.875 L 126.671875 275.050781 L 125.128906 275.144531 L 123.585938 275.164062 L 122.042969 275.101562 L 120.5 274.96875 L 118.953125 274.769531 L 117.410156 274.5 L 115.867188 274.171875 L 114.324219 273.789062 L 112.78125 273.355469 L 111.234375 272.878906 L 109.691406 272.367188 L 108.148438 271.828125 L 106.605469 271.273438 L 105.0625 270.707031 L 103.519531 270.144531 L 101.972656 269.59375 L 100.429688 269.070312 L 98.886719 268.585938 L 97.34375 268.152344 L 95.800781 267.777344 L 94.253906 267.480469 L 92.710938 267.265625 L 91.167969 267.140625 L 89.625 267.121094 L 88.082031 267.207031 L 86.535156 267.402344 L 84.992188 267.710938 L 83.449219 268.128906 L 81.90625 268.660156 L 80.363281 269.304688 L 78.816406 270.054688 L 77.273438 270.910156 L 75.730469 271.867188 L 74.1875 272.921875 L 72.644531 274.070312 L 71.097656 275.3125 L 69.554688 276.636719 L 68.011719 278.050781 L 66.46875 279.542969 L 64.925781 281.113281 L 63.382812 282.757812 L 61.835938 284.476562 L 60.292969 286.265625 L 58.75 288.125 L 57.207031 290.046875 L 55.664062 292.03125 L 54.117188 294.074219 L 52.574219 296.179688 L 51.03125 298.339844 L 49.488281 300.554688 L 47.945312 302.824219 L 46.398438 305.140625 Z M 46.398438 166.84375 "/>
<path fill-rule="nonzero" fill="rgb(22%, 59.6%, 14.9%)" fill-opacity="0.4" d="M 111.234375 248.253906 L 112.78125 248.347656 L 114.324219 248.394531 L 115.867188 248.394531 L 117.410156 248.347656 L 118.953125 248.25 L 120.5 248.097656 L 122.042969 247.894531 L 123.585938 247.632812 L 125.128906 247.316406 L 126.671875 246.941406 L 128.21875 246.503906 L 129.761719 246.011719 L 131.304688 245.457031 L 132.847656 244.839844 L 134.390625 244.160156 L 135.9375 243.421875 L 137.480469 242.621094 L 139.023438 241.753906 L 140.566406 240.828125 L 142.109375 239.84375 L 143.652344 238.796875 L 145.199219 237.691406 L 146.742188 236.523438 L 148.285156 235.300781 L 149.828125 234.023438 L 151.371094 232.6875 L 152.917969 231.300781 L 154.460938 229.863281 L 156.003906 228.378906 L 157.546875 226.84375 L 159.089844 225.265625 L 160.636719 223.644531 L 162.179688 221.984375 L 163.722656 220.285156 L 165.265625 218.554688 L 166.808594 216.792969 L 168.355469 215 L 169.898438 213.183594 L 171.441406 211.339844 L 172.984375 209.484375 L 172.984375 360 L 111.234375 360 Z M 111.234375 248.253906 "/>
<path fill="none" stroke-width="2.5" stroke-linecap="butt" stroke-linejoin="miter" stroke="rgb(22%, 59.6%, 14.9%)" stroke-opacity="1" stroke-dasharray="4 4" stroke-miterlimit="10" d="M 110.398438 360 L 110.398438 248.253906 "/>
<path fill="none" stroke-width="2.5" stroke-linecap="butt" stroke-linejoin="miter" stroke="rgb(22%, 59.6%, 14.9%)" stroke-opacity="1" stroke-dasharray="4 4" stroke-miterlimit="10" d="M 174.398438 360 L 174.398438 209.484375 "/>
<path fill="none" stroke-width="5" stroke-linecap="round" stroke-linejoin="round" stroke="rgb(58.4%, 34.5%, 69.8%)" stroke-opacity="1" stroke-miterlimit="10" d="M 46.398438 235.992188 L 47.945312 235.871094 L 49.488281 235.792969 L 51.03125 235.75 L 52.574219 235.742188 L 54.117188 235.777344 L 55.664062 235.84375 L 57.207031 235.949219 L 58.75 236.085938 L 60.292969 236.253906 L 61.835938 236.457031 L 63.382812 236.691406 L 64.925781 236.949219 L 66.46875 237.238281 L 68.011719 237.554688 L 69.554688 237.894531 L 71.097656 238.253906 L 72.644531 238.636719 L 74.1875 239.039062 L 75.730469 239.457031 L 77.273438 239.890625 L 78.816406 240.335938 L 80.363281 240.789062 L 81.90625 241.253906 L 83.449219 241.722656 L 86.535156 242.667969 L 88.082031 243.140625 L 89.625 243.609375 L 91.167969 244.070312 L 92.710938 244.523438 L 94.253906 244.960938 L 95.800781 245.386719 L 97.34375 245.796875 L 98.886719 246.183594 L 100.429688 246.546875 L 101.972656 246.886719 L 103.519531 247.199219 L 105.0625 247.480469 L 106.605469 247.730469 L 108.148438 247.945312 L 109.691406 248.117188 L 111.234375 248.253906 L 112.78125 248.347656 L 114.324219 248.394531 L 115.867188 248.394531 L 117.410156 248.347656 L 118.953125 248.25 L 120.5 248.097656 L 122.042969 247.894531 L 123.585938 247.632812 L 125.128906 247.316406 L 126.671875 246.941406 L 128.21875 246.503906 L 129.761719 246.011719 L 131.304688 245.457031 L 132.847656 244.839844 L 134.390625 244.160156 L 135.9375 243.421875 L 137.480469 242.621094 L 139.023438 241.753906 L 140.566406 240.828125 L 142.109375 239.84375 L 143.652344 238.796875 L 145.199219 237.691406 L 146.742188 236.523438 L 148.285156 235.300781 L 149.828125 234.023438 L 151.371094 232.6875 L 152.917969 231.300781 L 154.460938 229.863281 L 156.003906 228.378906 L 157.546875 226.84375 L 159.089844 225.265625 L 160.636719 223.644531 L 162.179688 221.984375 L 163.722656 220.285156 L 165.265625 218.554688 L 166.808594 216.792969 L 168.355469 215 L 169.898438 213.183594 L 171.441406 211.339844 L 172.984375 209.484375 L 174.527344 207.609375 L 176.074219 205.71875 L 177.617188 203.824219 L 179.160156 201.921875 L 180.703125 200.015625 L 182.246094 198.113281 L 183.789062 196.214844 L 185.335938 194.324219 L 186.878906 192.441406 L 188.421875 190.578125 L 189.964844 188.730469 L 191.507812 186.902344 L 193.054688 185.101562 L 194.597656 183.328125 L 196.140625 181.582031 L 197.683594 179.871094 L 199.226562 178.199219 L 200.773438 176.5625 L 202.316406 174.96875 L 203.859375 173.421875 L 205.402344 171.921875 L 206.945312 170.472656 L 208.492188 169.070312 L 210.035156 167.726562 L 211.578125 166.4375 L 213.121094 165.207031 L 214.664062 164.039062 L 216.210938 162.929688 L 217.753906 161.882812 L 219.296875 160.90625 L 220.839844 159.992188 L 222.382812 159.148438 L 223.925781 158.371094 L 225.472656 157.667969 L 227.015625 157.035156 L 228.558594 156.472656 L 230.101562 155.988281 L 231.644531 155.574219 L 233.191406 155.238281 L 234.734375 154.976562 L 236.277344 154.792969 L 237.820312 154.683594 L 239.363281 154.65625 L 240.910156 154.703125 L 242.453125 154.828125 L 243.996094 155.035156 L 245.539062 155.316406 L 247.082031 155.679688 L 248.628906 156.121094 L 250.171875 156.644531 L 251.714844 157.242188 L 253.257812 157.921875 L 254.800781 158.679688 L 256.347656 159.515625 L 257.890625 160.429688 L 259.433594 161.421875 L 260.976562 162.488281 L 262.519531 163.636719 L 264.0625 164.855469 L 265.609375 166.152344 L 267.152344 167.523438 L 268.695312 168.96875 L 270.238281 170.484375 L 271.78125 172.070312 L 273.328125 173.726562 L 274.871094 175.453125 L 276.414062 177.242188 L 277.957031 179.101562 L 279.5 181.019531 L 281.046875 183 L 282.589844 185.042969 L 284.132812 187.140625 L 285.675781 189.296875 L 287.21875 191.503906 L 288.765625 193.765625 L 290.308594 196.078125 L 291.851562 198.433594 L 293.394531 200.835938 L 294.9375 203.28125 L 296.480469 205.765625 L 298.027344 208.289062 L 299.570312 210.847656 L 301.113281 213.4375 L 302.65625 216.058594 L 304.199219 218.707031 L 305.746094 221.378906 L 307.289062 224.078125 L 308.832031 226.792969 L 310.375 229.527344 L 311.917969 232.277344 L 313.464844 235.039062 L 315.007812 237.808594 L 316.550781 240.589844 L 319.636719 246.160156 L 321.183594 248.949219 L 322.726562 251.734375 L 324.269531 254.515625 L 325.8125 257.289062 L 327.355469 260.054688 L 328.902344 262.8125 L 330.445312 265.554688 L 331.988281 268.28125 L 333.53125 270.992188 L 335.074219 273.683594 L 336.617188 276.351562 L 338.164062 279 L 339.707031 281.625 L 341.25 284.222656 L 342.792969 286.792969 L 344.335938 289.335938 L 345.882812 291.847656 L 347.425781 294.324219 L 348.96875 296.769531 L 350.511719 299.179688 L 352.054688 301.554688 L 353.601562 303.894531 "/>
<path fill="none" stroke-width="4" stroke-linecap="round" stroke-linejoin="round" stroke="rgb(79.6%, 23.5%, 20%)" stroke-opacity="1" stroke-miterlimit="10" d="M 217.601562 138.183594 L 294.398438 180.847656 "/>
<path fill-rule="nonzero" fill="rgb(25.1%, 38.8%, 84.7%)" fill-opacity="1" d="M 95 235.554688 C 95 239.421875 91.867188 242.554688 88 242.554688 C 84.132812 242.554688 81 239.421875 81 235.554688 C 81 231.691406 84.132812 228.554688 88 228.554688 C 91.867188 228.554688 95 231.691406 95 235.554688 Z M 95 235.554688 "/>
<path fill-rule="nonzero" fill="rgb(25.1%, 38.8%, 84.7%)" fill-opacity="1" d="M 207 164.445312 C 207 168.308594 203.867188 171.445312 200 171.445312 C 196.132812 171.445312 193 168.308594 193 164.445312 C 193 160.578125 196.132812 157.445312 200 157.445312 C 203.867188 157.445312 207 160.578125 207 164.445312 Z M 207 164.445312 "/>
<path fill-rule="nonzero" fill="rgb(25.1%, 38.8%, 84.7%)" fill-opacity="1" d="M 319 235.554688 C 319 239.421875 315.867188 242.554688 312 242.554688 C 308.132812 242.554688 305 239.421875 305 235.554688 C 305 231.691406 308.132812 228.554688 312 228.554688 C 315.867188 228.554688 319 231.691406 319 235.554688 Z M 319 235.554688 "/>
</svg>
